# xmcd CD database file
#
# Track frame offsets:
#	150
#	33681
#	58671
#	90079
#	118699
#	147388
#	174431
#	205481
#	234990
#	266135
#	300302
#
# Disc length: 4432 seconds
#
# Revision: 11
# Processed by: cddbd v1.5.2PL0 Copyright (c) Steve Scherf et al.
# Submitted via: CDex 1.70beta3
#
DISCID=94114e0b
DTITLE=Sound Horizon - Roman
DYEAR=2006
DGENRE=Rock
TTITLE0=朝と夜の物語
TTITLE1=焔
TTITLE2=見えざる腕
TTITLE3=呪われし宝石
TTITLE4=星屑の革紐
TTITLE5=緋色の風車
TTITLE6=天使の彫像
TTITLE7=美しきもの
TTITLE8=歓びと哀しみの葡萄酒
TTITLE9=黄昏の賢者
TTITLE10=11文字の伝言
EXTD=YEAR: 2006
EXTT0=
EXTT1=
EXTT2=
EXTT3=
EXTT4=
EXTT5=
EXTT6=
EXTT7=
EXTT8=
EXTT9=
EXTT10=
PLAYORDER=
